<mxfile host="app.diagrams.net" modified="2023-07-07T20:59:05.927Z" agent="Mozilla/5.0 (Windows NT 10.0; Win64; x64) AppleWebKit/537.36 (KHTML, like Gecko) Chrome/114.0.0.0 Safari/537.36" etag="Sj4Ul9vMRjnTb3RoYNtI" version="21.6.1" type="device">
  <diagram name="Página-1" id="FSEzP4Qt-Gz8sV5X7Tic">
    <mxGraphModel dx="1434" dy="768" grid="1" gridSize="10" guides="1" tooltips="1" connect="1" arrows="1" fold="1" page="1" pageScale="1" pageWidth="827" pageHeight="1169" math="0" shadow="0">
      <root>
        <mxCell id="0" />
        <mxCell id="1" parent="0" />
        <mxCell id="fFdz6_YlxnduKx-6xNwI-17" value="Frontend" style="rounded=0;whiteSpace=wrap;html=1;verticalAlign=top;fontStyle=1;fontSize=23;fontColor=#FFFFFF;" parent="1" vertex="1">
          <mxGeometry x="750" y="20" width="410" height="380" as="geometry" />
        </mxCell>
        <mxCell id="fFdz6_YlxnduKx-6xNwI-13" value="Backend" style="rounded=0;whiteSpace=wrap;html=1;verticalAlign=top;fontStyle=1;fontSize=23;fontColor=#FFFFFF;labelBackgroundColor=none;" parent="1" vertex="1">
          <mxGeometry x="20" y="20" width="730" height="380" as="geometry" />
        </mxCell>
        <mxCell id="_bQWBrCm_jBOcyYT94zW-22" style="edgeStyle=orthogonalEdgeStyle;rounded=0;orthogonalLoop=1;jettySize=auto;html=1;exitX=0.5;exitY=1;exitDx=0;exitDy=0;entryX=1;entryY=0.5;entryDx=0;entryDy=0;startArrow=classic;startFill=1;" parent="1" source="_bQWBrCm_jBOcyYT94zW-3" target="_bQWBrCm_jBOcyYT94zW-21" edge="1">
          <mxGeometry relative="1" as="geometry" />
        </mxCell>
        <mxCell id="_bQWBrCm_jBOcyYT94zW-3" value="Blade Ocorrencias" style="rounded=0;whiteSpace=wrap;html=1;" parent="1" vertex="1">
          <mxGeometry x="920" y="100" width="120" height="60" as="geometry" />
        </mxCell>
        <mxCell id="21i9PUHhlQgmHVVKJSh5-3" value="" style="group" vertex="1" connectable="0" parent="1">
          <mxGeometry x="100" y="130" width="720" height="200" as="geometry" />
        </mxCell>
        <mxCell id="_bQWBrCm_jBOcyYT94zW-21" value="Custom Javascript Files" style="rounded=1;whiteSpace=wrap;html=1;" parent="21i9PUHhlQgmHVVKJSh5-3" vertex="1">
          <mxGeometry x="580" y="80" width="140" height="40" as="geometry" />
        </mxCell>
        <mxCell id="21i9PUHhlQgmHVVKJSh5-2" value="" style="group" vertex="1" connectable="0" parent="21i9PUHhlQgmHVVKJSh5-3">
          <mxGeometry width="430" height="200" as="geometry" />
        </mxCell>
        <mxCell id="_bQWBrCm_jBOcyYT94zW-16" value="" style="group" parent="21i9PUHhlQgmHVVKJSh5-2" vertex="1" connectable="0">
          <mxGeometry y="120" width="430" height="80" as="geometry" />
        </mxCell>
        <mxCell id="fFdz6_YlxnduKx-6xNwI-19" value="&lt;font color=&quot;#000000&quot;&gt;Local DB&lt;/font&gt;" style="shape=datastore;whiteSpace=wrap;html=1;fontColor=#FFFFFF;" parent="_bQWBrCm_jBOcyYT94zW-16" vertex="1">
          <mxGeometry width="80" height="80" as="geometry" />
        </mxCell>
        <mxCell id="_bQWBrCm_jBOcyYT94zW-10" style="edgeStyle=orthogonalEdgeStyle;rounded=0;orthogonalLoop=1;jettySize=auto;html=1;exitX=0;exitY=0.5;exitDx=0;exitDy=0;entryX=1;entryY=0.5;entryDx=0;entryDy=0;startArrow=classic;startFill=1;" parent="_bQWBrCm_jBOcyYT94zW-16" source="_bQWBrCm_jBOcyYT94zW-4" target="fFdz6_YlxnduKx-6xNwI-19" edge="1">
          <mxGeometry relative="1" as="geometry" />
        </mxCell>
        <mxCell id="_bQWBrCm_jBOcyYT94zW-4" value="Ação, Meio de Abertura, Motivo, Tipo and&lt;br&gt;Controller" style="shape=process;whiteSpace=wrap;html=1;backgroundOutline=1;" parent="_bQWBrCm_jBOcyYT94zW-16" vertex="1">
          <mxGeometry x="270" width="160" height="80" as="geometry" />
        </mxCell>
        <mxCell id="_bQWBrCm_jBOcyYT94zW-11" value="Respectivos Modelos" style="ellipse;whiteSpace=wrap;html=1;aspect=fixed;" parent="_bQWBrCm_jBOcyYT94zW-16" vertex="1">
          <mxGeometry x="140" width="80" height="80" as="geometry" />
        </mxCell>
        <mxCell id="_bQWBrCm_jBOcyYT94zW-17" value="" style="group" parent="21i9PUHhlQgmHVVKJSh5-2" vertex="1" connectable="0">
          <mxGeometry width="430" height="80" as="geometry" />
        </mxCell>
        <mxCell id="fFdz6_YlxnduKx-6xNwI-22" value="&lt;font color=&quot;#000000&quot;&gt;Oracle&lt;br&gt;(KMM DB)&lt;/font&gt;" style="shape=datastore;whiteSpace=wrap;html=1;fontColor=#FFFFFF;" parent="_bQWBrCm_jBOcyYT94zW-17" vertex="1">
          <mxGeometry width="80" height="80" as="geometry" />
        </mxCell>
        <mxCell id="_bQWBrCm_jBOcyYT94zW-6" style="edgeStyle=orthogonalEdgeStyle;rounded=0;orthogonalLoop=1;jettySize=auto;html=1;exitX=0;exitY=0.5;exitDx=0;exitDy=0;entryX=1;entryY=0.5;entryDx=0;entryDy=0;startArrow=classic;startFill=1;" parent="_bQWBrCm_jBOcyYT94zW-17" source="_bQWBrCm_jBOcyYT94zW-1" target="fFdz6_YlxnduKx-6xNwI-22" edge="1">
          <mxGeometry relative="1" as="geometry" />
        </mxCell>
        <mxCell id="_bQWBrCm_jBOcyYT94zW-1" value="InformaçõesKMM&lt;br&gt;Controller" style="shape=process;whiteSpace=wrap;html=1;backgroundOutline=1;" parent="_bQWBrCm_jBOcyYT94zW-17" vertex="1">
          <mxGeometry x="270" width="160" height="80" as="geometry" />
        </mxCell>
        <mxCell id="_bQWBrCm_jBOcyYT94zW-23" style="edgeStyle=orthogonalEdgeStyle;rounded=0;orthogonalLoop=1;jettySize=auto;html=1;exitX=0;exitY=0.5;exitDx=0;exitDy=0;entryX=1;entryY=0.5;entryDx=0;entryDy=0;startArrow=classic;startFill=1;" parent="21i9PUHhlQgmHVVKJSh5-3" source="_bQWBrCm_jBOcyYT94zW-21" target="_bQWBrCm_jBOcyYT94zW-4" edge="1">
          <mxGeometry relative="1" as="geometry" />
        </mxCell>
        <mxCell id="21i9PUHhlQgmHVVKJSh5-1" style="edgeStyle=orthogonalEdgeStyle;rounded=0;orthogonalLoop=1;jettySize=auto;html=1;exitX=1;exitY=0.5;exitDx=0;exitDy=0;entryX=0;entryY=0.5;entryDx=0;entryDy=0;startArrow=classic;startFill=1;" edge="1" parent="21i9PUHhlQgmHVVKJSh5-3" source="_bQWBrCm_jBOcyYT94zW-1" target="_bQWBrCm_jBOcyYT94zW-21">
          <mxGeometry relative="1" as="geometry" />
        </mxCell>
      </root>
    </mxGraphModel>
  </diagram>
</mxfile>
